<svg id="katman_1" data-name="katman 1" xmlns="http://www.w3.org/2000/svg" viewBox="0 0 2000 460"><path d="M1165.62,224.6a34.94,34.94,0,0,0,0-69.86H1017.67a35.1,35.1,0,0,0-34.94,34.94v63.4a35,35,0,0,0,25.35,33.59l122.6,35v2.11H1017a34.95,34.95,0,0,0,0,69.89h148.67a35.09,35.09,0,0,0,34.92-34.93v-63.4a35,35,0,0,0-25.35-33.59l-122.59-35V224.6Zm174.77-57.29a34.86,34.86,0,0,0-26.83-12.57h-63.41a35.09,35.09,0,0,0-34.93,34.92V358.77a35.09,35.09,0,0,0,34.93,34.92h87.46a34.94,34.94,0,0,0,0-69.86h-52.52V224.62h12.1l87.11,104.52v29.63a34.94,34.94,0,0,0,69.86,0V316.48a34.89,34.89,0,0,0-8.12-22.37Zm591.87,126.8-105.68-126.8a34.87,34.87,0,0,0-26.83-12.57h-63.43a35.08,35.08,0,0,0-34.92,34.92V358.77a35.09,35.09,0,0,0,34.92,34.91h87.47a34.94,34.94,0,0,0,0-69.87h-52.53V224.6h12.11l87.1,104.52v29.63a34.94,34.94,0,0,0,69.87,0V316.48A35,35,0,0,0,1932.26,294.11ZM1666.4,157.94a35,35,0,0,0-37.32,5.21l-51.25,43.93-51.35-44a34.92,34.92,0,0,0-57.64,26.53V358.77a34.94,34.94,0,0,0,69.87,0V265.56l16.46,14.05a35,35,0,0,0,45.46,0l16.3-14v93.12a34.94,34.94,0,0,0,69.88,0V189.66a35,35,0,0,0-20.41-31.72Zm0,0a35,35,0,0,0-37.32,5.21l-51.25,43.93-51.35-44a34.92,34.92,0,0,0-57.64,26.53V358.77a34.94,34.94,0,0,0,69.87,0V265.56l16.46,14.05a35,35,0,0,0,45.46,0l16.3-14v93.12a34.94,34.94,0,0,0,69.88,0V189.66a35,35,0,0,0-20.41-31.72Zm-244.84-19.13v1.32s48-19,57.4-14.09l-5.64,1.66c.49,0,9.64.59,9.64.59a12.83,12.83,0,0,0,5.79,9.34c5.5,3.64,5.61,5.61,5.61,5.61s-2.86,1.17-2.86,2.65a26.07,26.07,0,0,1,15.53,0c2.4.7-.28-1.49-4.13-2.65s-7.55-5.22-9.43-7.48a10.59,10.59,0,0,1-1.49-10.32c1.33-3.42,6-5.32,15.43-10.22,11.2-5.79,13.76-10.13,15.33-13.47s3.94-10,5.24-13.17a17.22,17.22,0,0,1,5.39-7.48c1.66-1.27,9.23-4.13,9.23-4.13s-5.78-4.92-7.66-6.41a16,16,0,0,0-8.55-4.19c-4-.52-8.08,2.14-10.83,3.92s-8.08,7-10.23,8.49-7.68,3-16.46,8.36-43.65,27.63-43.65,27.63l9,.09-40.29,20.9h4l-5.8,4.49a13,13,0,0,0,9.44-1.44ZM257.21,157.94a35,35,0,0,0-37.32,5.21l-51.25,43.93-51.34-44a34.92,34.92,0,0,0-57.64,26.53V358.77a34.94,34.94,0,0,0,69.87,0V265.56L146,279.61a35,35,0,0,0,45.46,0l16.29-14v93.12a34.94,34.94,0,1,0,69.88,0V189.66a35,35,0,0,0-20.41-31.72ZM936,390.07a32.36,32.36,0,0,1-24.93-11.72l-81.89-98.93v78.3a32.36,32.36,0,0,1-64.71,0V189.61A32.35,32.35,0,0,1,821.72,169l81.9,98.93v-78.3a32.36,32.36,0,0,1,64.71,0V357.72A32.37,32.37,0,0,1,936,390.07Zm-220.83,2.58H563.72a34.93,34.93,0,0,1-34.93-34.93V189.61a34.93,34.93,0,0,1,34.93-34.93H715.15a34.93,34.93,0,0,1,34.93,34.93V357.72A34.93,34.93,0,0,1,715.15,392.65Zm-116.5-69.86h81.57V224.54H598.65ZM479,393.1H327.51a34.93,34.93,0,0,1-34.93-34.93V190.06a34.93,34.93,0,0,1,34.93-34.93H479a34.93,34.93,0,0,1,34.93,34.93V358.17A34.93,34.93,0,0,1,479,393.1ZM362.44,323.24H444V225H362.44Z"/></svg>