<svg xmlns="http://www.w3.org/2000/svg" xmlns:xlink="http://www.w3.org/1999/xlink" viewBox="0 0 477.31 54.38"><defs><style>.cls-1{isolation:isolate;}.cls-2{mix-blend-mode:hard-light;}.cls-3{fill:url(#radial-gradient);}.cls-4{fill:url(#radial-gradient-2);}.cls-5{fill:url(#radial-gradient-3);}.cls-6{fill:url(#radial-gradient-4);}.cls-7{fill:url(#radial-gradient-5);}.cls-8{fill:url(#radial-gradient-6);}.cls-9{fill:url(#radial-gradient-7);}.cls-10{fill:url(#radial-gradient-8);}.cls-11{fill:url(#radial-gradient-9);}.cls-12{fill:url(#radial-gradient-10);}.cls-13{fill:url(#radial-gradient-11);}.cls-14{fill:url(#radial-gradient-12);}.cls-15{fill:url(#radial-gradient-13);}.cls-16{fill:url(#radial-gradient-14);}.cls-17{fill:url(#radial-gradient-15);}.cls-18{fill:url(#radial-gradient-16);}.cls-19{fill:url(#radial-gradient-17);}.cls-20{fill:url(#radial-gradient-18);}.cls-21{fill:url(#radial-gradient-19);}.cls-22{fill:url(#radial-gradient-20);}.cls-23{fill:url(#radial-gradient-21);}.cls-24{fill:url(#radial-gradient-22);}.cls-25{fill:url(#radial-gradient-23);}.cls-26{fill:url(#radial-gradient-24);}.cls-27{fill:url(#radial-gradient-25);}.cls-28{fill:url(#radial-gradient-26);}.cls-29{fill:url(#radial-gradient-27);}.cls-30{fill:url(#radial-gradient-28);}.cls-31{fill:url(#radial-gradient-29);}.cls-32{fill:url(#radial-gradient-30);}.cls-33{fill:url(#radial-gradient-31);}.cls-34{fill:url(#radial-gradient-32);}.cls-35{fill:url(#radial-gradient-33);}.cls-36{fill:url(#radial-gradient-34);}.cls-37{fill:url(#radial-gradient-35);}.cls-38{fill:url(#radial-gradient-36);}.cls-39{fill:url(#radial-gradient-37);}.cls-40{fill:url(#radial-gradient-38);}.cls-41{fill:url(#radial-gradient-39);}.cls-42{fill:url(#linear-gradient);}.cls-43{fill:url(#linear-gradient-2);}.cls-44{fill:#ff2695;}.cls-45{fill:#fff;}</style><radialGradient id="radial-gradient" cx="240.04" cy="27.07" r="605.53" gradientTransform="translate(8.94 -25.24) rotate(9.57)" gradientUnits="userSpaceOnUse"><stop offset="0" stop-color="#66c8ff"/><stop offset="0.02" stop-color="#67c1ff"/><stop offset="0.21" stop-color="#6b8dff"/><stop offset="0.39" stop-color="#6f62ff"/><stop offset="0.56" stop-color="#7140ff"/><stop offset="0.72" stop-color="#7328ff"/><stop offset="0.87" stop-color="#751aff"/><stop offset="1" stop-color="#7515ff"/></radialGradient><radialGradient id="radial-gradient-2" cx="244.25" cy="27.93" r="610.14" gradientTransform="matrix(1, 0, 0, 1, 0, 0)" xlink:href="#radial-gradient"/><radialGradient id="radial-gradient-3" cx="244.82" cy="27.62" r="612.49" gradientTransform="matrix(1, 0, 0, 1, 0, 0)" xlink:href="#radial-gradient"/><radialGradient id="radial-gradient-4" cx="242.21" cy="28.17" r="614.56" gradientTransform="matrix(1, 0, 0, 1, 0, 0)" xlink:href="#radial-gradient"/><radialGradient id="radial-gradient-5" cx="240" cy="28.23" r="603.67" gradientTransform="matrix(1, 0, 0, 1, 0, 0)" xlink:href="#radial-gradient"/><radialGradient id="radial-gradient-6" cx="239.99" cy="-10.38" r="614.58" gradientTransform="translate(0.59 35.68) rotate(1.16)" xlink:href="#radial-gradient"/><radialGradient id="radial-gradient-7" cx="241" cy="-9.3" r="614.72" gradientTransform="translate(0.33 36.23) rotate(1.18)" xlink:href="#radial-gradient"/><radialGradient id="radial-gradient-8" cx="241.76" cy="27.07" r="614.81" gradientTransform="matrix(1, 0, 0, 1, 0, 0)" xlink:href="#radial-gradient"/><radialGradient id="radial-gradient-9" cx="231.63" cy="13.91" r="589.53" gradientTransform="translate(0.04 12.81) rotate(0.41)" xlink:href="#radial-gradient"/><radialGradient id="radial-gradient-10" cx="236.27" cy="-102.83" r="615.29" gradientTransform="translate(-1.52 126.92) rotate(4.03)" xlink:href="#radial-gradient"/><radialGradient id="radial-gradient-11" cx="236.96" cy="-99.16" r="614.88" gradientTransform="translate(-1.52 126.92) rotate(4.03)" xlink:href="#radial-gradient"/><radialGradient id="radial-gradient-12" cx="244.49" cy="27.61" r="614.21" gradientTransform="matrix(1, 0, 0, 1, 0, 0)" xlink:href="#radial-gradient"/><radialGradient id="radial-gradient-13" cx="242.83" cy="28.22" r="614.42" gradientTransform="matrix(1, 0, 0, 1, 0, 0)" xlink:href="#radial-gradient"/><radialGradient id="radial-gradient-14" cx="242.2" cy="28.3" r="614.96" gradientTransform="matrix(1, 0, 0, 1, 0, 0)" xlink:href="#radial-gradient"/><radialGradient id="radial-gradient-15" cx="237.46" cy="27.2" r="615.07" gradientTransform="matrix(1, 0, 0, 1, 0, 0)" xlink:href="#radial-gradient"/><radialGradient id="radial-gradient-16" cx="239.36" cy="29.97" r="615" gradientTransform="matrix(1, 0, 0, 1, 0, 0)" xlink:href="#radial-gradient"/><radialGradient id="radial-gradient-17" cx="242.21" cy="28.2" r="614.25" gradientTransform="matrix(1, 0, 0, 1, 0, 0)" xlink:href="#radial-gradient"/><radialGradient id="radial-gradient-18" cx="239.91" cy="23.51" r="606.15" gradientTransform="matrix(1, 0, 0, 1, 0, 0)" xlink:href="#radial-gradient"/><radialGradient id="radial-gradient-19" cx="240.49" cy="29.38" r="586.45" gradientTransform="translate(-1.3 6.38) rotate(-1.91)" xlink:href="#radial-gradient"/><radialGradient id="radial-gradient-20" cx="241.94" cy="-1.3" r="558.34" gradientTransform="translate(0.05 25.46) rotate(0.92)" xlink:href="#radial-gradient"/><radialGradient id="radial-gradient-21" cx="230.86" cy="-171.49" r="606.23" gradientTransform="translate(-8.26 177.93) rotate(6.33)" xlink:href="#radial-gradient"/><radialGradient id="radial-gradient-22" cx="241.02" cy="26.37" r="487.69" gradientTransform="matrix(1, 0, 0, 1, 0, 0)" xlink:href="#radial-gradient"/><radialGradient id="radial-gradient-23" cx="241.32" cy="28.5" r="471.52" gradientTransform="matrix(1, 0, 0, 1, 0, 0)" xlink:href="#radial-gradient"/><radialGradient id="radial-gradient-24" cx="239.15" cy="29.74" r="613.15" gradientTransform="matrix(1, 0, 0, 1, 0, 0)" xlink:href="#radial-gradient"/><radialGradient id="radial-gradient-25" cx="240.68" cy="28.02" r="593.4" gradientTransform="matrix(1, 0, 0, 1, 0, 0)" xlink:href="#radial-gradient"/><radialGradient id="radial-gradient-26" cx="242.56" cy="28.94" r="612.23" gradientTransform="matrix(1, 0, 0, 1, 0, 0)" xlink:href="#radial-gradient"/><radialGradient id="radial-gradient-27" cx="240.72" cy="120.53" r="614.74" gradientTransform="translate(-3.44 -77.19) rotate(-2.95)" xlink:href="#radial-gradient"/><radialGradient id="radial-gradient-28" cx="242.22" cy="28.14" r="610.52" gradientTransform="matrix(1, 0, 0, 1, 0, 0)" xlink:href="#radial-gradient"/><radialGradient id="radial-gradient-29" cx="240.25" cy="26.81" r="615.06" gradientTransform="matrix(1, 0, 0, 1, 0, 0)" xlink:href="#radial-gradient"/><radialGradient id="radial-gradient-30" cx="234.68" cy="-149.25" r="614.02" gradientTransform="translate(-6.43 149.4) rotate(5.75)" xlink:href="#radial-gradient"/><radialGradient id="radial-gradient-31" cx="242.24" cy="28.35" r="614.35" gradientTransform="matrix(1, 0, 0, 1, 0, 0)" xlink:href="#radial-gradient"/><radialGradient id="radial-gradient-32" cx="237.26" cy="122.13" r="611.66" gradientTransform="translate(-4.24 -76.67) rotate(-3.04)" xlink:href="#radial-gradient"/><radialGradient id="radial-gradient-33" cx="242.24" cy="28.11" r="615.11" gradientTransform="matrix(1, 0, 0, 1, 0, 0)" xlink:href="#radial-gradient"/><radialGradient id="radial-gradient-34" cx="242.26" cy="28.37" r="613.92" gradientTransform="matrix(1, 0, 0, 1, 0, 0)" xlink:href="#radial-gradient"/><radialGradient id="radial-gradient-35" cx="242.23" cy="28.28" r="614.91" gradientTransform="matrix(1, 0, 0, 1, 0, 0)" xlink:href="#radial-gradient"/><radialGradient id="radial-gradient-36" cx="238.7" cy="125.04" r="614.94" gradientTransform="translate(-2.73 -75.36) rotate(-3.05)" xlink:href="#radial-gradient"/><radialGradient id="radial-gradient-37" cx="248.33" cy="26.87" r="614.89" gradientTransform="matrix(1, 0, 0, 1, 0, 0)" xlink:href="#radial-gradient"/><radialGradient id="radial-gradient-38" cx="241.72" cy="27.83" r="615" gradientTransform="translate(-0.57 13.95) rotate(-1.83)" xlink:href="#radial-gradient"/><radialGradient id="radial-gradient-39" cx="242.3" cy="28.61" r="614.93" gradientTransform="matrix(1, 0, 0, 1, 0, 0)" xlink:href="#radial-gradient"/><linearGradient id="linear-gradient" x1="246.92" y1="-125.77" x2="513.66" y2="140.97" gradientTransform="translate(-0.72 -21.56) rotate(-0.88)" gradientUnits="userSpaceOnUse"><stop offset="0" stop-color="#9ca9ff"/><stop offset="1" stop-color="#4393c7"/></linearGradient><linearGradient id="linear-gradient-2" x1="246.92" y1="-125.77" x2="513.66" y2="140.97" gradientTransform="translate(-0.72 -21.56) rotate(-0.88)" gradientUnits="userSpaceOnUse"><stop offset="0" stop-color="#66c8ff"/><stop offset="1" stop-color="#7515ff"/></linearGradient></defs><g class="cls-1"><g id="Layer_2" data-name="Layer 2"><g id="The_Logo" data-name="The Logo"><g id="moonsama_glitch_white" data-name="moonsama glitch white"><g class="cls-2"><path class="cls-3" d="M168.93,35.79q-16.22.32-32.48.73,4.65,3.28,9.36,6.49,11.56.48,23.11,1C168.92,41.3,168.93,38.55,168.93,35.79Z"/><path class="cls-4" d="M126.76,40c0,1.74-.08,3.48-.11,5.22q11.63-.18,23.25-.3-4.67-3-9.28-6Z"/><path class="cls-5" d="M138.52,36.79l0-1.33c-3.37-2.24-6.72-4.51-10.05-6.84h-1q-.12,6-.25,12.06,8.58-.67,17.18-1.33l-3.95-2.58Z"/><path class="cls-6" d="M137.18,27.68,127,27.75q5,3.49,10,6.86Z"/><path class="cls-7" d="M178.78,33.74l-11.14.15-.18,8.34q-11.09.06-22.15.16c1.31.86,2.63,1.71,3.94,2.55q14.67-1.19,29.34-2.29C178.65,39.68,178.72,36.71,178.78,33.74Z"/><path class="cls-8" d="M48.49,40.16l.15,6.23q6.44-.36,12.87-.68l-.15-6.22Z"/><path class="cls-9" d="M48.88,27.15q.16,6.6.32,13.19,6.42-.35,12.86-.66-.16-6.41-.32-12.81Z"/><path class="cls-10" d="M31.94,38.55q6.48-6.44,13-12.55-13.08.16-26.14.31Q25.35,32.6,31.94,38.55Z"/><path class="cls-11" d="M30.31,20Q20.85,10.68,11.4.61L2.05,0q-.1,12-.23,23.94c4.18.06,8.35.13,12.53.18l0-3.06,3.08,3.1q12.81.16,25.6.28l3.08-2.78c0,.93,0,1.87,0,2.81l12.6.1.21-21.25-9.35-.48Q39.95,11.11,30.31,20Z"/><path class="cls-12" d="M3,51.5q6.57-.31,13.13-.57c0-2.45,0-4.91.07-7.36q-6.56.21-13.11.44Z"/><path class="cls-13" d="M4.05,30q-.12,7.08-.25,14.13l13.11-.31Q17,37,17.13,30.15C12.77,30.1,8.41,30,4.05,30Z"/><path class="cls-14" d="M68.9,41.13c0,2.5,0,5,.08,7.49q25.81-1.07,51.63-1.82c0-2.56-.07-5.13-.1-7.69Q94.71,40.08,68.9,41.13Z"/><path class="cls-15" d="M107.06,26.84c0,2.88.07,5.76.11,8.64q-13.44.29-26.86.6c0-2.92-.07-5.83-.1-8.75l-12.38.2q.06,5.82.13,11.62,25.8-1.08,51.61-2.06l-.09-7.35q-2.64-1.5-5.26-3Z"/><path class="cls-16" d="M107.77,22.94l9.23.34c-3-1.76-6-3.54-8.92-5.37C108,19.59,107.87,21.27,107.77,22.94Z"/><path class="cls-17" d="M64.38,2.65l-.12,21.47H76.64L76.7,13.2,94,13.55q-8.44-5-16.73-10.41Q70.85,2.92,64.38,2.65Z"/><path class="cls-18" d="M117.06,5.78q-19.35-.56-38.7-1.31,8.28,5.46,16.73,10.45l9.53.2,0,5.25q4.57,2.56,9.2,5h3.15Z"/><path class="cls-19" d="M137.71,13.9q13.42.27,26.86.48c-.07,2.9-.13,5.8-.2,8.7l12.39,0q.19-8.58.38-17.14-25.81-.53-51.62-1.34-.19,9.27-.4,18.55h12.39Q137.6,18.51,137.71,13.9Z"/><path class="cls-20" d="M196.66,23.2l-12.91.05-.21,9.52,12.91-.23Z"/><path class="cls-21" d="M196.63,38.33l-12.9.67c0,2.76.07,5.53.1,8.3q6.45-.22,12.9-.42Q196.67,42.61,196.63,38.33Z"/><path class="cls-22" d="M236.44,24.05l-.09-16.5L223.7,7.49l.09,16.71Z"/><path class="cls-23" d="M195.94,22.93,199,25.34l18.53.53q-11.64-9.1-23.28-18.35L184.48,7l-1.62,17.86,12.87.39Z"/><path class="cls-24" d="M236.14,35.58c.06-2.83.13-5.66.19-8.49l-12.65.07c0,1-.05,2-.07,3l-4.26-3-18.22.1L213.53,36Z"/><path class="cls-25" d="M236.16,48.5l.21-9.46-22.61.43,12.77,9Z"/><path class="cls-26" d="M290,17.89l.6-8.8q-24.44-.64-48.86-1.48-.57,8.13-1.12,16.25,24.59.48,49.18.88v0q-18.12-2.62-36.23-5.19c.06-.93.13-1.87.19-2.8Q271.92,17.34,290,17.89Z"/><path class="cls-27" d="M292,34.65l-12.65.26c0,.56,0,1.12,0,1.68q-18.46-.27-36.94-.47-.09,4.5-.2,9,24.79.28,49.59.79Z"/><path class="cls-28" d="M243,27,243,29.62Q261.18,31.78,279.4,34c0,.29,0,.57,0,.86L292,34.6c0-2.63.11-5.27.17-7.9Q267.61,26.89,243,27Z"/><path class="cls-29" d="M324.16,22.43l-15.35.94q-3.49,4.29-7,8.54l15.64-1.18Q320.81,26.59,324.16,22.43Z"/><path class="cls-30" d="M334.74,34c.84,1.07,1.69,2.13,2.54,3.2q-11.17-.42-22.34-.81l2.13-2.27-15.69.09-4.09,4.28c-.1,2.28-.21,4.55-.31,6.83q28.69,1.09,57.39,2.6c.1-2.39.21-4.79.31-7.18q-2.65-3.45-5.3-6.86Z"/><path class="cls-31" d="M340.77,22.34l-15,.17q3.17,3.75,6.31,7.53,7.32-.2,14.64-.42Z"/><path class="cls-32" d="M325,20.24c.67.81,1.35,1.61,2,2.42l15-.08q-6.41-7.84-12.8-15.49h-7.63Q314.46,15,307.38,22.75l15.38-.06Z"/><path class="cls-33" d="M382.38,40q5.79-4.7,11.57-9.52-10.74.4-21.48.76Q377.42,35.59,382.38,40Z"/><path class="cls-34" d="M356.35,46.67q6.33-.11,12.66-.18-.25-7.43-.49-14.84l-12.62,1Z"/><path class="cls-35" d="M414,22.34q-13.68.24-27.36.45l-1.37,1.14L384,22.83q-13.71.21-27.43.39c-.05,2.5-.1,5-.16,7.51l12.66-.4c0-1.77.07-3.53.11-5.29,2,1.68,3.91,3.37,5.87,5.08q10.74-.37,21.48-.8c1.57-1.32,3.13-2.64,4.69-4,0,1.27-.05,2.53-.07,3.79q6.36-.25,12.72-.54Z"/><path class="cls-36" d="M400.75,30.23l-.33,17.22q6.34.27,12.71.58.17-9.15.34-18.33Q407.11,30,400.75,30.23Z"/><path class="cls-37" d="M382.56,21q-9.22-7.41-18.45-14.46c-3.14.15-6.29.29-9.43.42l.48,15.36Q368.86,21.73,382.56,21Z"/><path class="cls-38" d="M408.89,4.62l-9.41.71q-8.67,8.52-17.37,16.59,13.65-1,27.3-2C409.24,14.85,409.06,9.73,408.89,4.62Z"/><path class="cls-39" d="M446.39,15.73l0,0,15-.42Q456,7.59,450.55.14l-7.63.25Q437,8.46,431,16.18l15.38-.4Z"/><path class="cls-40" d="M445.3,20.91l-15.38.31q-2.1,2.69-4.21,5.33l14.85.56C442.14,25.06,443.72,23,445.3,20.91Z"/><path class="cls-41" d="M462.74,21.94l-15-.37q2.13,3.36,4.26,6.78l15.39,1.3C465.85,27.06,464.29,24.48,462.74,21.94Z"/><path class="cls-42" d="M468,32.92l-15.43-.76q3,4.52,6.07,9.14c-7.45-.33-20.77-.9-28.22-1.19,2.3-2.85,7.79-8.3,10.09-11.22l-14.85-.7c-3.24,4-3.81,10.74-7.05,14.61l-.36,7.86q28.72,1.55,57.44,3.72.18-4.38.35-8.77Q472,39.16,468,32.92Z"/><path class="cls-43" d="M468,32.92l-15.43-.76q3,4.52,6.07,9.14c-7.45-.33-17.58-3.47-25-3.77q3.45-4.26,6.9-8.64l-14.85-.7q-4.86,6-9.73,11.79c-.12,2.62,2.44,8.06,2.32,10.68q28.72,1.55,57.44,3.72.18-4.38.35-8.77Q472,39.16,468,32.92Z"/><path class="cls-44" d="M136.4,24.6,123.94,24l0,1.71q6.14,4.47,12.37,8.76Z"/><path class="cls-44" d="M136.28,34.55v-.09Q130,30.17,123.91,25.7c0,3.28-.09,6.56-.13,9.84,4.57-.08,9.13-.18,13.7-.25l-1.07-.74Z"/><path class="cls-44" d="M142.14,43.35l1.15.62Q151,43,158.8,42.15,150.46,42.74,142.14,43.35Z"/><path class="cls-44" d="M177.63,29.32l-12.57.17c-.07,3-.13,6.05-.2,9.09l12.58-.93C177.5,34.87,177.56,32.1,177.63,29.32Z"/><path class="cls-44" d="M123.64,40.94c.08,2.77.15,5.52.23,8.28q15.19-.45,30.38-.72-7.12-4.22-14.16-8.59Q131.87,40.41,123.64,40.94Z"/><path class="cls-44" d="M175.89,38.41c-4.15.23-8.31.45-12.46.69,0,.16,0,.32,0,.48l-10.26.1q-6.41.36-12.82.74,7,4.38,14.16,8.58,10.86-.2,21.7-.33Z"/><path class="cls-44" d="M29.93,23.27Q19.91,13.15,9.87,2.19C6.58,2,3.3,1.84,0,1.65Q0,12.3,0,23c20,.79,39.9,1.28,59.85,1.59L60,4.33,50.12,4Q40,13.29,29.93,23.27Z"/><path class="cls-44" d="M.11,23,.2,36.67l13.27.07q0-6.14-.1-12.29Q19.67,30.8,26,36.82l8.39,0Q40.66,30.41,47,24.24,47,30.62,47.11,37l13.34.12q-.09-6.53-.18-13.08Q30.18,23.5.11,23Z"/><path class="cls-44" d="M46.68,39.15V50.63q6.65-.26,13.29-.46,0-5.39,0-10.79Z"/><path class="cls-44" d="M30.31,40.94l3.93-4.14-8.34,0Z"/><path class="cls-44" d="M.45,52.52q6.62-.47,13.23-.88l-.09-13.46L.38,38.11Q.41,45.33.45,52.52Z"/><path class="cls-44" d="M105.85,28.51l9.4,0c-3.17-1.85-6.34-3.73-9.48-5.65C105.79,24.73,105.82,26.62,105.85,28.51Z"/><path class="cls-44" d="M66,3.6l.24,18.91q6.24.06,12.49.09l-.12-8.52q11.28,0,22.54.07Q93.45,9.28,85.91,4,75.95,3.83,66,3.6Z"/><path class="cls-44" d="M120.5,6.28Q104.44,6,88.38,5.64,95.91,11,103.61,15.86l4.54,0c0,1,0,1.92,0,2.87,3.14,2,6.31,3.87,9.48,5.74l3.08,0Q120.63,15.4,120.5,6.28Z"/><path class="cls-44" d="M105.67,28.44c0,3.53.08,7.05.11,10.58l-5.3.13,17.8,0-.09-7.83c-1.49-.94-3-1.9-4.45-2.86Z"/><path class="cls-44" d="M120.19,22.29q-1.53,2.25-3,4.51l3-.09Z"/><path class="cls-44" d="M64.38,30.91c.25,3.61.49,7.21.74,10.81l12.49-.6-.75-10.75Z"/><path class="cls-44" d="M98.77,40.4q-10.89.35-21.78.73c0-.2,0-.4,0-.6l-12.49.07c.06,3.81.12,7.61.17,11.42q26-1.44,52.05-2.47l-.15-9.26Z"/><path class="cls-44" d="M137.43,14.64q13.55.33,27.09.57c-.09,2.85-.18,5.71-.26,8.56l12.48.22.54-17.72q-26-.58-52.06-1.52-.25,9-.51,18.13,6.23.16,12.47.31Q137.32,18.92,137.43,14.64Z"/><path class="cls-44" d="M235.61,30.05l-.09-18.15-12.75,0,.09,18.14Z"/><path class="cls-44" d="M235,48.16c0-2.93,0-5.87,0-8.8l-21.74.18,12,8.61Z"/><path class="cls-44" d="M235.55,39.53q0-4.74,0-9.48l-12.75-.12c0,.92,0,1.83,0,2.75L219,29.89l-18.84-.2q6.84,5,13.67,9.93Z"/><path class="cls-44" d="M196.65,39.93q-.09-5.28-.16-10.56l-13,.09.15,10.76Z"/><path class="cls-44" d="M193.85,48.37c0-2.81-.09-5.61-.13-8.42l-13,.29q.06,4.21.13,8.41Z"/><path class="cls-44" d="M195.65,23.51,198.92,26l19.2.11Q205.58,16.76,193,7.31l-9.89-.12q-.28,9.31-.56,18.64l13,.09C195.6,25.12,195.62,24.32,195.65,23.51Z"/><path class="cls-44" d="M290.78,27.94c0-.61,0-1.21,0-1.81q-18.36-2.34-36.73-4.6c0-1,0-2,.07-3q18.29.2,36.57.35c.07-3.1.15-6.2.22-9.3q-24.66-.09-49.32-.38-.23,9-.44,18Z"/><path class="cls-44" d="M278.65,34.07c0,.23,0,.46,0,.69l12.75-.32-.09-6.6q-24.81.26-49.6.46l0,1.92Q260.2,32.13,278.65,34.07Z"/><path class="cls-44" d="M240.94,48.84q25-.27,50-.26l-.18-11.84L278,37.05l0,2q-18.62.12-37.24.31C240.84,42.51,240.89,45.67,240.94,48.84Z"/><path class="cls-44" d="M321.53,24.83,306.28,25q-3.37,4.13-6.74,8.23l15.54-.42Q318.31,28.86,321.53,24.83Z"/><path class="cls-44" d="M349.72,37l-15,.36.89,1.1q-11.26,0-22.53,0l.49-.59-15.54.38c-.89,1-1.78,2.09-2.68,3.13l-.12,7.23q29,0,57.92.5.06-3.8.1-7.59C352.09,40,350.9,38.46,349.72,37Z"/><path class="cls-44" d="M340.41,24.2l-15.34.21q3.18,3.72,6.35,7.47,7.49-.22,15-.48Q343.4,27.77,340.41,24.2Z"/><path class="cls-44" d="M322.43,19.84l4.27,5L342,24.58q-7.95-9.49-15.88-18.73l-7.69.23q-7.68,9.65-15.35,19l15.25-.2Q320.4,22.39,322.43,19.84Z"/><path class="cls-44" d="M367.89,24.6l0-1.41,1.64,1.4q14.56-.11,29.13-.27l1.54-1.46,0,1.44L413,24.12q-.16-10.5-.32-21c-3.18.16-6.35.3-9.53.44Q393.58,12.94,384,21.72,374.16,13.16,364.27,5c-3.17.1-6.35.18-9.52.27q.19,9.69.39,19.41Z"/><path class="cls-44" d="M369.71,24.39l-12.75.2q.06,4,.11,7.91c4.25-.15,8.5-.29,12.75-.45C369.78,29.49,369.75,26.94,369.71,24.39Z"/><path class="cls-44" d="M355.83,33.18q.21,5.81.4,11.6l12.75-.1q-.21-6.09-.41-12.17Z"/><path class="cls-44" d="M398.46,23.84q-14.56.29-29.13.53,4.29,3.64,8.57,7.36,6.33-.24,12.66-.51Q394.51,27.58,398.46,23.84Z"/><path class="cls-44" d="M390.21,34.17l-12.66.46q3.09,2.7,6.18,5.44Q387,37.14,390.21,34.17Z"/><path class="cls-44" d="M400.61,30.86l.18,13.84q6.4.11,12.82.25-.09-7.32-.19-14.64Z"/><path class="cls-44" d="M412.78,23.9,400,24.16l.09,6.91,12.81-.61C412.83,28.27,412.8,26.09,412.78,23.9Z"/><path class="cls-44" d="M435.13,37.17c1.11-1.39,2.22-2.8,3.32-4.21l-15.79,0q-1.74,2.16-3.49,4.29,11.13.18,22.22.32Z"/><path class="cls-44" d="M459.4,38.54l.46.78q-8.12-.52-16.24-1-11.08-.15-22.21-.36l-1.89,2.3L419,48.6q28.89,2.15,57.79,4.95l.51-9.35-3.08-5.42Q466.82,38.64,459.4,38.54Z"/><path class="cls-44" d="M471.43,33.74q-7.4,0-14.8,0,1.44,2.37,2.87,4.77,7.42.09,14.83.21Z"/><path class="cls-44" d="M440.27,23.25,425,23.59q-2.25,3.24-4.5,6.42,7.88-.41,15.76-.87C437.6,27.19,438.94,25.23,440.27,23.25Z"/><path class="cls-44" d="M465.18,22.27l-15.32,0,3.5,5.21q7.39-.28,14.78-.61Q466.67,24.53,465.18,22.27Z"/><path class="cls-44" d="M445.1,18.36q2.08,2.84,4.19,5.73l15.31-.51q-8-11.38-15.9-22.1l-7.65.6q-7.55,11.77-15.14,22.86,7.62-.3,15.24-.56Z"/></g><path class="cls-45" d="M31.56,23.61Q21.84,13.76,12.11,3.39L2.59,3.1V50.45l12.76-.39v-25q8.12,8.36,16.21,16.38,8.07-8.33,16.14-16.32v24l12.84-.32V4.69L51,4.46Q41.29,13.84,31.56,23.61Z"/><path class="cls-45" d="M65.9,48.73q26.61-.61,53.23-1V6q-26.62-.42-53.23-1ZM78.67,16.17l27.69.26v20.8l-27.69.27Z"/><path class="cls-45" d="M124.49,47.61q26.63-.4,53.24-.61V6.66q-26.62-.21-53.24-.61Zm12.77-30.95,27.7.16v20q-13.86.06-27.7.16Z"/><path class="cls-45" d="M221.93,29.65Q207.41,18.19,192.88,6.59l-9.72-.06V47l12.76-.08V23.93Q210.46,35.41,225,46.76h9.73v-40l-12.77,0Z"/><path class="cls-45" d="M252.77,17q18.3,0,36.61-.08V6.72q-24.69.17-49.38.18V28.79l36.89,4.65v2.93q-18.66,0-37.3,0V46.75q25,0,50.06.18V24.78l-36.88-4.54Z"/><path class="cls-45" d="M318.37,6.29Q305.8,22.88,293.23,39.07V47q29,.21,58,.65V39.46q-12.57-16.9-25.13-33.25ZM310.93,36q5.61-7.32,11.22-14.72,5.67,7.36,11.35,14.83Z"/><path class="cls-45" d="M383.23,23.81q-9.74-9.19-19.46-18.08l-9.52.15V47.66q6.39.09,12.77.21V25.24q8.1,7.53,16.21,15.29Q391.3,33,399.37,25.19v23.3l12.84.29v-44L402.68,5Q393,14.58,383.23,23.81Z"/><path class="cls-45" d="M448.08,3.78,440.39,4q-12.57,18.65-25.13,36.23v8.63q29,.69,57.95,1.6V41.2Q460.64,21.86,448.08,3.78ZM433,37q5.6-8.06,11.21-16.34,5.67,8.2,11.34,16.62Z"/></g></g></g></g></svg>