<svg xmlns="http://www.w3.org/2000/svg" viewBox="0 0 467.89 47.42"><defs><style>.cls-1{fill:#fff}</style></defs><g id="Layer_2" data-name="Layer 2"><g id="The_Logo" data-name="The Logo"><g id="moonsama_white" data-name="moonsama white"><path class="cls-1" d="M28.98 20.47 9.53.07H0v47.35h12.77v-25.4l16.21 16.96 16.14-16.96v25.4h12.84V.07h-9.53l-19.45 20.4zM62 47.42h53.23V.2H62Zm12.73-35.26h27.69v23.3H74.73ZM119.19 47.42h53.23V.2h-53.23ZM132 12.16h27.69v23.3H132ZM215.19 27.16 186.15 0h-9.73v47.42h12.77V20.4l29.04 27.02h9.73V0h-12.77v27.16zM245.13 12.16h36.62V.2h-49.38v25.94l36.88 5.47v3.45h-37.29v12.36h50.06V21.41l-36.89-5.4v-3.85zM311.15 0 286 38.17v9.25h58v-9.25L318.85 0Zm-7.44 34.52 11.22-17.09 11.35 17.09ZM376.95 20.47 357.5.07h-9.52v47.35h12.76v-25.4l16.21 16.96 16.15-16.96v25.4h12.83V.07h-9.52l-19.46 20.4zM442.76 0h-7.7l-25.13 38.17v9.25h58v-9.25Zm-15.13 34.52 11.22-17.09 11.34 17.09Z"/></g></g></g></svg>