<svg width="21" height="21" viewBox="0 0 21 21" fill="none" xmlns="http://www.w3.org/2000/svg">
<path d="M10.5007 18.8359C5.9069 18.8359 2.16732 15.0964 2.16732 10.5026C2.16732 5.90885 5.9069 2.16927 10.5007 2.16927C15.0944 2.16927 18.834 5.90885 18.834 10.5026C18.834 15.0964 15.0944 18.8359 10.5007 18.8359ZM10.5007 0.0859375C9.13272 0.0859375 7.77817 0.355373 6.51437 0.878859C5.25056 1.40235 4.10223 2.16963 3.13496 3.13691C1.18145 5.09041 0.0839844 7.73993 0.0839844 10.5026C0.0839844 13.2653 1.18145 15.9148 3.13496 17.8683C4.10223 18.8356 5.25056 19.6029 6.51437 20.1264C7.77817 20.6498 9.13272 20.9193 10.5007 20.9193C13.2633 20.9193 15.9128 19.8218 17.8663 17.8683C19.8199 15.9148 20.9173 13.2653 20.9173 10.5026C20.9173 9.13467 20.6479 7.78013 20.1244 6.51632C19.6009 5.25251 18.8336 4.10419 17.8663 3.13691C16.8991 2.16963 15.7507 1.40235 14.4869 0.878859C13.2231 0.355373 11.8686 0.0859375 10.5007 0.0859375ZM8.41732 15.1901L14.6673 10.5026L8.41732 5.8151V15.1901Z" fill="#01472A"/>
</svg>
